PathFileType  4	(X/Y/Z) C:\Users\antoi\Documents\MyRepositories\mobilecap\ResultsAnalysis
DataRate	CameraRate	NumFrames	NumMarkers	Units	OrigDataRate	OrigDataStartFrame	OrigNumFrames
100.0	100.0	7	51	mm	100.0	64	170
Frame#	Time	r_knee			r_shank_antsup			r_ankle			r_calc			r_5meta			r_toe			L_knee			L_shank_antsup			L_ankle			L_calc			L_5meta			L_toe			r_sh2			r_sh3			r_sh4			L_sh2			L_sh3			r_thigh1			r_thigh2			r_thigh3			r_thigh4			r_thigh5			L_thigh1			L_thigh2			L_thigh3			L_thigh4			r.ASIS			r.PSIS			L.ASIS			L.PSIS			C7			R_Shoulder			L_Shoulder			R_Sternum			L_Sternum			R_humerus			R_elbow_med			R_elbow_lat			R_forearm			R_wrist_radius			R_wrist_ulna			L_humerus			L_elbow_med			L_elbow_lat			L_forearm			L_wrist_radius			L_wrist_ulna			R_HJC			L_HJC			R_HJC_reg			L_HJC_reg			
		X1	Y1	Z1	X2	Y2	Z2	X3	Y3	Z3	X4	Y4	Z4	X5	Y5	Z5	X6	Y6	Z6	X7	Y7	Z7	X8	Y8	Z8	X9	Y9	Z9	X10	Y10	Z10	X11	Y11	Z11	X12	Y12	Z12	X13	Y13	Z13	X14	Y14	Z14	X15	Y15	Z15	X16	Y16	Z16	X17	Y17	Z17	X18	Y18	Z18	X19	Y19	Z19	X20	Y20	Z20	X21	Y21	Z21	X22	Y22	Z22	X23	Y23	Z23	X24	Y24	Z24	X25	Y25	Z25	X26	Y26	Z26	X27	Y27	Z27	X28	Y28	Z28	X29	Y29	Z29	X30	Y30	Z30	X31	Y31	Z31	X32	Y32	Z32	X33	Y33	Z33	X34	Y34	Z34	X35	Y35	Z35	X36	Y36	Z36	X37	Y37	Z37	X38	Y38	Z38	X39	Y39	Z39	X40	Y40	Z40	X41	Y41	Z41	X42	Y42	Z42	X43	Y43	Z43	X44	Y44	Z44	X45	Y45	Z45	X46	Y46	Z46	X47	Y47	Z47	X48	Y48	Z48	X49	Y49	Z49	X50	Y50	Z50	X51	Y51	Z51	

64	0.63000000	296.39368	488.77405	-35.24416	318.49322	433.06824	-43.85906	151.63166	104.08826	-89.75862	90.33289	75.64322	-139.19469	290.76112	32.13986	-53.69229	317.91283	53.76297	-113.14460	550.25054	504.69390	-351.16019	604.82465	437.42347	-364.27241	662.99493	119.26531	-323.00328	622.31958	63.82052	-267.84501	796.91467	99.58795	-350.85320	832.77188	138.16077	-302.88166	285.33580	324.93985	-61.53748	249.35009	447.47814	-9.43272	215.05446	336.74437	-14.50594	516.50367	419.62082	-369.82916	552.78896	303.20316	-364.70719	470.09206	753.45801	-89.72712	448.03621	642.53083	-84.80428	425.24089	627.81769	-24.33303	404.18686	765.85674	3.55600	380.83566	654.77975	2.84733	457.81452	812.22839	-363.78801	513.82968	682.05534	-376.21362	354.26217	767.66769	-353.19553	409.57644	643.43690	-345.37604	481.35450	938.43204	-61.60643	289.02301	985.82440	-128.51591	472.94357	936.85070	-297.07748	280.10580	979.72571	-225.85762	374.22859	1446.90443	-159.48129	449.84886	1388.24630	-0.79791	421.70583	1386.06798	-330.16915	471.59422	1336.45146	-151.40249	473.22518	1334.11406	-190.45863	451.83677	1143.81980	67.10493	381.18536	1059.81951	47.47737	425.11479	1055.98681	90.85510	491.15523	925.83983	78.74263	525.52121	831.88623	45.15868	497.21888	822.86649	81.52635	359.54573	1161.65516	-414.58263	296.11217	1070.20480	-367.32885	309.91758	1072.35062	-425.12040	353.69738	936.82720	-456.88991	384.82937	833.49743	-448.84891	343.44442	828.34889	-464.39122	402.03008	861.68667	-93.29520	382.73826	869.37935	-282.83193	408.12283	880.20672	-83.84226	393.96485	870.52033	-238.40605	
65	0.64000000	302.09200	488.89377	-34.76941	323.54789	432.79778	-43.28027	152.62504	105.59249	-89.15283	91.01985	78.00071	-138.61046	290.90196	32.02370	-53.37143	318.29038	53.20020	-112.84056	561.76913	503.78583	-352.38835	617.05954	437.29745	-365.43968	678.44356	119.39725	-325.87066	637.70745	63.05359	-271.64471	812.78649	101.52573	-352.38456	847.59455	140.03605	-303.72041	289.01282	325.08187	-60.85884	254.55781	448.12301	-9.15194	218.72098	337.94456	-14.13799	528.97456	418.52006	-372.18282	566.69246	302.35636	-367.69887	478.82483	751.89693	-88.79171	455.61291	641.17762	-83.84622	432.37743	626.83764	-23.55357	412.70225	764.89486	3.79835	387.91517	654.08080	3.28649	470.26459	811.43384	-363.55441	525.94850	681.17819	-375.94572	366.57181	767.15366	-354.48613	421.00703	642.49632	-346.84490	491.27438	937.51844	-60.90737	299.55055	984.72302	-129.35418	484.66608	935.70303	-296.80854	291.26442	978.45352	-226.71506	383.29367	1446.02387	-164.00380	459.20396	1389.29688	-4.80337	430.57817	1383.56211	-334.09524	480.99016	1335.95154	-154.87297	482.57217	1333.17763	-193.92889	461.45561	1145.33885	65.04099	390.43698	1061.32202	46.57892	434.67638	1057.74070	89.59368	499.99580	927.19121	77.99432	533.28563	832.67075	44.90916	505.86604	824.09373	81.72084	367.85999	1158.50387	-416.38248	304.93974	1067.33738	-368.00902	318.06655	1069.20969	-425.95068	361.29318	933.46733	-457.48100	392.29170	830.11054	-449.12042	350.75330	824.93002	-464.31868	412.33335	860.67362	-93.23835	394.37934	868.17378	-282.91183	418.32427	879.23853	-83.57239	405.14439	869.26253	-238.45494	
66	0.65000000	308.25827	488.85013	-34.40825	329.05026	432.35034	-42.82106	153.69457	107.13353	-88.57959	91.79094	80.48123	-138.03522	291.05903	31.91035	-53.09422	318.61263	52.54878	-112.58573	573.42410	502.99536	-353.51765	629.33127	437.09348	-366.48527	692.56192	119.18268	-328.70915	651.51720	62.00853	-275.52278	827.35917	102.73962	-353.75445	861.02428	141.05570	-304.31334	293.02720	325.10062	-60.28699	260.25515	448.64441	-8.96931	222.76883	339.08184	-13.85664	541.42786	417.68407	-374.52500	580.18744	301.56973	-370.82749	487.75267	750.27908	-87.81326	463.61164	639.78968	-82.78131	439.84943	625.82321	-22.69299	421.18131	763.84474	4.04628	395.17857	653.28921	3.70315	482.97640	810.72173	-363.39082	538.35077	680.42192	-375.79781	379.13768	766.77321	-355.96494	432.68669	641.68138	-348.43204	501.25090	936.57246	-60.16729	310.23629	983.63201	-130.28565	496.58311	934.56780	-296.48788	302.63727	977.28329	-227.66114	392.41350	1445.10401	-168.71974	468.58002	1390.38809	-8.97478	439.58036	1380.99281	-338.16322	490.50217	1335.46425	-158.46954	492.05771	1332.23888	-197.52813	471.03551	1146.92974	62.91609	399.65906	1062.91775	45.61792	444.21049	1059.57749	88.27336	508.78887	928.65684	77.17059	540.99255	833.50022	44.59086	514.57078	825.40886	81.83512	376.39332	1155.27275	-418.27221	314.04053	1064.40540	-368.76803	326.47966	1066.00028	-426.78792	369.16825	930.02367	-458.11720	400.06768	826.64659	-449.43667	358.34810	821.41592	-464.26559	422.69447	859.65357	-93.21946	406.21103	867.01754	-283.02924	428.60720	878.16882	-83.35379	416.49683	868.04785	-238.56463	
67	0.66000000	314.90777	488.62591	-34.17656	335.00524	431.70566	-42.48499	154.85642	108.74057	-88.04982	92.66059	83.07552	-137.47998	291.22938	31.80904	-52.86494	318.92665	51.86763	-112.36721	585.22067	502.32060	-354.52287	641.62833	436.76127	-367.39755	705.25736	118.55847	-331.45950	663.69575	60.64562	-279.35824	840.51581	103.12470	-354.97400	873.03410	141.15168	-304.73903	297.38341	324.98499	-59.83023	266.43395	449.03829	-8.89997	227.20891	340.14680	-13.67326	553.85378	417.08227	-376.80762	593.20421	300.82967	-373.98120	496.89513	748.59250	-86.83710	472.00562	638.34808	-81.66715	447.66808	624.74586	-21.81261	429.65655	762.69696	4.27904	402.67387	652.38181	4.05691	495.89974	810.12129	-363.32129	550.99486	679.80046	-375.81115	391.91345	766.52462	-357.55538	444.66647	641.04581	-350.07176	511.31932	935.57599	-59.39072	321.09397	982.51529	-131.27437	508.69320	933.44686	-296.10606	314.22543	976.20732	-228.66175	401.61150	1444.12839	-173.64207	477.98798	1391.51969	-13.31371	448.72678	1378.35686	-342.38427	500.13742	1334.99091	-162.20604	501.70102	1331.29968	-201.26673	480.57621	1148.60083	60.72036	408.85153	1064.61166	44.59419	453.71487	1061.50244	86.89163	517.50829	930.25099	76.27624	548.66106	834.40216	44.21610	523.27247	826.85286	81.89675	385.14942	1151.96150	-420.26621	323.41459	1061.41162	-369.61837	335.18125	1062.71806	-427.62299	377.32662	926.48578	-458.80830	408.19105	823.12610	-449.82233	366.22830	817.82401	-464.23212	433.14658	858.60339	-93.23517	418.23803	865.90767	-283.17553	439.01490	876.94830	-83.19735	428.04699	866.87352	-238.73766	
68	0.67000000	322.04910	488.21370	-34.07843	341.41042	430.85337	-42.26590	156.13588	110.44845	-87.56470	93.64317	85.78806	-136.94879	291.40083	31.73394	-52.67730	319.28152	51.22013	-112.16628	597.15685	501.73902	-355.38774	653.91308	436.23081	-368.18382	716.46321	117.47388	-334.06451	674.20995	58.98161	-283.01887	852.13141	102.57278	-356.04867	883.61698	140.26449	-305.07610	302.08044	324.73069	-59.48812	273.07492	449.31714	-8.94693	232.05130	341.13776	-13.58807	566.22288	416.65661	-378.98377	605.63593	300.12389	-377.01679	506.27856	746.82871	-85.91571	480.71233	636.82635	-80.57935	455.83739	623.57613	-20.98434	438.21944	761.45133	4.46132	410.46128	651.34043	4.31088	508.99338	809.65151	-363.37075	563.83417	679.30904	-376.00156	404.86210	766.38154	-359.18700	456.97813	640.59696	-351.70140	521.53060	934.50700	-58.59265	332.13613	981.33482	-132.27932	520.99355	932.34315	-295.66696	326.02808	975.20125	-229.67641	410.91056	1443.07747	-178.78883	487.42702	1392.68696	-17.83020	458.03566	1375.64625	-346.76956	509.89744	1334.52582	-166.09520	511.51505	1330.35740	-205.15308	490.07987	1150.36022	58.44146	418.01368	1066.40377	43.50330	463.18697	1063.52028	85.44369	526.14060	931.98097	75.31538	556.33847	835.41663	43.80116	531.93921	828.45462	81.92802	394.14297	1148.56531	-422.37880	333.07294	1058.34333	-370.56962	344.19887	1059.34777	-428.46615	385.77311	922.83706	-459.56158	416.67912	819.54636	-450.28819	374.40097	814.16165	-464.21974	443.73753	857.49550	-93.28637	430.46443	864.83619	-283.34582	449.59537	875.54275	-83.11538	439.82271	865.72852	-238.97842	
69	0.68000000	329.68869	487.61346	-34.10840	348.26042	429.79138	-42.15363	157.56099	112.28976	-87.11567	94.75500	88.63711	-136.43596	291.55277	31.70131	-52.51706	319.71140	50.65497	-111.96615	609.21508	501.20004	-356.10958	666.12142	435.42214	-368.86383	726.16189	115.90185	-336.46788	683.06613	57.10950	-286.36413	862.11273	100.97664	-356.98262	892.80350	138.34542	-305.39908	307.11781	324.33900	-59.25513	280.16116	449.50245	-9.10135	237.30725	342.05837	-13.58953	578.47985	416.32355	-381.00785	617.35823	299.42729	-379.78638	515.93294	744.98217	-85.10188	489.65119	635.19993	-79.59996	464.36136	622.28793	-20.27689	446.99619	760.11321	4.55463	418.61039	650.15383	4.44069	522.23168	809.30558	-363.56380	576.82115	678.91578	-376.35345	417.95899	766.29438	-360.80973	469.62292	640.29497	-353.26389	531.94101	933.34064	-57.79909	343.37618	980.05856	-133.26049	533.48193	931.26166	-295.19025	338.04350	974.22848	-230.66442	420.32417	1441.93152	-184.18100	496.88503	1393.88223	-22.54175	467.52909	1372.84682	-351.32989	519.78167	1334.05668	-170.14815	521.50478	1329.40517	-209.19484	499.54680	1152.21363	56.06889	427.14456	1068.29176	42.33557	472.62340	1065.63470	83.92367	534.69587	933.84518	74.28513	564.08597	836.58379	43.36298	540.57581	830.22607	81.93956	403.40075	1145.07361	-424.62184	343.03852	1055.17280	-371.62645	353.55407	1055.86690	-429.35346	394.51622	919.05956	-460.37902	425.52696	815.88485	-450.83381	382.87920	810.42117	-464.22843	454.52252	856.30129	-93.38074	442.89279	863.79320	-283.54233	460.39422	873.94245	-83.11965	451.84591	864.59692	-239.29185	
70	0.69000000	337.83424	486.83070	-34.25343	355.55353	428.52469	-42.13834	159.15574	114.29308	-86.68404	96.01418	91.65418	-135.92470	291.66415	31.72143	-52.36834	320.22542	50.19103	-111.75904	621.35539	500.62311	-356.70211	678.16729	434.25993	-369.46365	734.40924	113.85219	-338.60890	690.33419	55.20526	-289.24923	870.44826	98.24049	-357.78192	900.68957	135.35460	-305.77152	312.50184	323.81693	-59.12189	287.69376	449.61332	-9.34409	242.98922	342.91935	-13.65489	590.54110	415.98216	-382.83566	628.26757	298.68839	-382.16897	525.88828	743.05105	-84.44274	498.80103	633.45741	-78.80263	473.25299	620.86423	-19.74345	456.11379	758.68726	4.52809	427.19239	648.81930	4.43912	535.59947	809.04207	-363.91651	589.90933	678.55943	-376.82231	431.18437	766.20108	-362.39431	482.56214	640.06727	-354.70617	542.60124	932.05291	-57.04578	354.82874	978.66652	-134.18548	546.15675	930.20902	-294.71097	350.26814	973.24649	-231.59255	429.85449	1440.67238	-189.83849	506.34532	1395.09770	-27.46804	477.23444	1369.93735	-356.07406	529.79178	1333.56720	-174.37434	531.66821	1328.43189	-213.39975	508.97427	1154.16305	53.59582	436.24447	1070.27232	41.07688	482.01986	1067.84782	82.32594	543.21092	935.83617	73.17468	571.95611	837.93187	42.91570	549.21334	832.16619	81.93197	412.95801	1141.46944	-427.00322	353.34303	1051.86092	-372.78993	363.25609	1052.25186	-430.34091	403.56998	915.13781	-461.25826	434.71354	812.10612	-451.45109	391.68126	806.58096	-464.25743	465.55506	854.99566	-93.53359	455.52248	862.76910	-283.77612	471.44874	872.16551	-83.21947	464.12471	863.46163	-239.68226	
